{
    "asset" : {
        "generator" : "Khronos glTF Blender I/O v1.7.33",
        "version" : "2.0"
    },
    "scene" : 0,
    "scenes" : [
        {
            "name" : "Scene",
            "nodes" : [
                0,
                1,
                2
            ]
        }
    ],
    "nodes" : [
        {
            "mesh" : 0,
            "name" : "\u5e73\u9762"
        },
        {
            "mesh" : 1,
            "name" : "\u5e73\u9762.001",
            "scale" : [
                13.657137870788574,
                13.657137870788574,
                13.657137870788574
            ],
            "translation" : [
                0,
                -0.4737057685852051,
                0
            ]
        },
        {
            "name" : "\u9762\u5149",
            "rotation" : [
                -0.249738872051239,
                -0.10866919159889221,
                0.06273864209651947,
                -0.9601487517356873
            ],
            "translation" : [
                0.15897202491760254,
                2.0463740825653076,
                2.679673433303833
            ]
        }
    ],
    "materials" : [
        {
            "doubleSided" : true,
            "name" : "\u6750\u8d28",
            "pbrMetallicRoughness" : {
                "baseColorFactor" : [
                    0.8000000715255737,
                    0.047569647431373596,
                    0.2540327310562134,
                    1
                ],
                "metallicFactor" : 0,
                "roughnessFactor" : 0.20000000298023224
            }
        },
        {
            "doubleSided" : true,
            "name" : "\u6750\u8d28.001",
            "pbrMetallicRoughness" : {
                "baseColorFactor" : [
                    0.01599481701850891,
                    0.01599481701850891,
                    0.01599481701850891,
                    1
                ],
                "metallicFactor" : 0,
                "roughnessFactor" : 0.5
            }
        }
    ],
    "meshes" : [
        {
            "name" : "\u5e73\u9762",
            "primitives" : [
                {
                    "attributes" : {
                        "POSITION" : 0,
                        "NORMAL" : 1,
                        "TEXCOORD_0" : 2
                    },
                    "indices" : 3,
                    "material" : 0
                }
            ]
        },
        {
            "name" : "\u5e73\u9762.001",
            "primitives" : [
                {
                    "attributes" : {
                        "POSITION" : 4,
                        "NORMAL" : 5,
                        "TEXCOORD_0" : 6
                    },
                    "indices" : 7,
                    "material" : 1
                }
            ]
        }
    ],
    "accessors" : [
        {
            "bufferView" : 0,
            "componentType" : 5126,
            "count" : 298,
            "max" : [
                1,
                0.4363526403903961,
                2
            ],
            "min" : [
                -1,
                -0.4749578535556793,
                -2
            ],
            "type" : "VEC3"
        },
        {
            "bufferView" : 1,
            "componentType" : 5126,
            "count" : 298,
            "type" : "VEC3"
        },
        {
            "bufferView" : 2,
            "componentType" : 5126,
            "count" : 298,
            "type" : "VEC2"
        },
        {
            "bufferView" : 3,
            "componentType" : 5123,
            "count" : 960,
            "type" : "SCALAR"
        },
        {
            "bufferView" : 4,
            "componentType" : 5126,
            "count" : 4,
            "max" : [
                1,
                0,
                1
            ],
            "min" : [
                -1,
                0,
                -1
            ],
            "type" : "VEC3"
        },
        {
            "bufferView" : 5,
            "componentType" : 5126,
            "count" : 4,
            "type" : "VEC3"
        },
        {
            "bufferView" : 6,
            "componentType" : 5126,
            "count" : 4,
            "type" : "VEC2"
        },
        {
            "bufferView" : 7,
            "componentType" : 5123,
            "count" : 6,
            "type" : "SCALAR"
        }
    ],
    "bufferViews" : [
        {
            "buffer" : 0,
            "byteLength" : 3576,
            "byteOffset" : 0
        },
        {
            "buffer" : 0,
            "byteLength" : 3576,
            "byteOffset" : 3576
        },
        {
            "buffer" : 0,
            "byteLength" : 2384,
            "byteOffset" : 7152
        },
        {
            "buffer" : 0,
            "byteLength" : 1920,
            "byteOffset" : 9536
        },
        {
            "buffer" : 0,
            "byteLength" : 48,
            "byteOffset" : 11456
        },
        {
            "buffer" : 0,
            "byteLength" : 48,
            "byteOffset" : 11504
        },
        {
            "buffer" : 0,
            "byteLength" : 32,
            "byteOffset" : 11552
        },
        {
            "buffer" : 0,
            "byteLength" : 12,
            "byteOffset" : 11584
        }
    ],
    "buffers" : [
        {
            "byteLength" : 11596,
            "uri" : "data:application/octet-stream;base64,"
        }
    ]
}
